<?xml version="1.0" encoding="UTF-8"?>
<svg version="1.1" xmlns="http://www.w3.org/2000/svg" width="500" height="500">
<path d="M0 0 C2.3551516 -0.00570921 4.71030043 -0.01267559 7.06544495 -0.02079773 C13.43774783 -0.03868838 19.80991268 -0.03756778 26.1822331 -0.03185534 C30.17186542 -0.02953748 34.161477 -0.0317634 38.15110588 -0.03633308 C38.81563169 -0.03708151 39.48015749 -0.03782993 40.16482044 -0.03860103 C41.51532715 -0.0401327 42.86583385 -0.04167105 44.21634053 -0.043216 C56.85656261 -0.05691585 69.49672264 -0.05152238 82.13694327 -0.04003078 C93.65968975 -0.03011372 105.18227529 -0.04301705 116.70499695 -0.06696498 C128.57626552 -0.09144852 140.44745943 -0.10094046 152.31875271 -0.09431225 C158.96749525 -0.09083885 165.61613255 -0.09326799 172.26486397 -0.11056328 C178.52524483 -0.12613809 184.78532124 -0.12196073 191.04569054 -0.10325813 C193.32916332 -0.0996005 195.61265918 -0.10259699 197.89611053 -0.11314392 C234.07090962 -0.26732754 264.3774472 11.10695567 290.34936523 36.59155273 C305.64277478 52.07736888 316.67416845 70.48417426 323.72436523 91.09155273 C323.99087891 91.86063965 324.25739258 92.62972656 324.53198242 93.42211914 C329.28469066 108.33504778 330.16978422 123.49850517 330.11254883 139.01806641 C330.11662668 140.90769247 330.12197529 142.79731615 330.128479 144.68693542 C330.14201146 149.76115589 330.13691366 154.83519086 330.12734175 159.90941405 C330.11967474 165.25148834 330.12680979 170.59354817 330.13150024 175.93562317 C330.13693607 184.89835422 330.12982207 193.86101076 330.11547852 202.82373047 C330.09914126 213.1507851 330.10445716 223.4776621 330.12095773 233.80471247 C330.13461693 242.71395634 330.13647111 251.62314708 330.12864172 260.53239805 C330.12399143 265.8350508 330.12326722 271.13762032 330.13325119 276.44026756 C330.14198403 281.42520821 330.13578483 286.40992193 330.11856842 291.39483833 C330.11463771 293.21235148 330.11567817 295.02988409 330.12235641 296.84738922 C330.20702897 322.25374017 324.31569344 343.46694874 306.34936523 362.27905273 C291.39638311 376.60725844 272.28198643 383.57684933 251.74536133 383.5377655 C250.86383298 383.54003106 249.98230463 383.54229662 249.0740633 383.54463083 C246.13196297 383.55094059 243.18990907 383.55014339 240.24780273 383.54931641 C238.13320354 383.55230989 236.01860489 383.55571285 233.90400696 383.55949402 C228.16599108 383.56832153 222.42799012 383.57067168 216.68996811 383.5713098 C213.10024613 383.57202131 209.51052793 383.5741576 205.92080688 383.57680702 C193.38315592 383.58605812 180.84551559 383.59014243 168.30786133 383.58935547 C156.64562195 383.58875557 144.98342897 383.59929084 133.32120132 383.61509913 C123.29118254 383.62820736 113.26117885 383.63353795 103.23115158 383.63290006 C97.2487093 383.63264593 91.26630821 383.63544988 85.28387451 383.64607811 C79.64990397 383.65581377 74.01601351 383.65580101 68.38204002 383.64856148 C66.32426015 383.64752222 64.26647514 383.64983893 62.20870399 383.65592194 C47.26757768 383.69719714 32.91922903 383.07253927 18.47436523 378.84155273 C17.59522461 378.58543213 16.71608398 378.32931152 15.81030273 378.06542969 C-4.72450018 371.78988506 -21.36722858 360.57081766 -37.27563477 346.40405273 C-38.00395508 345.76081055 -38.73227539 345.11756836 -39.48266602 344.45483398 C-61.50138402 323.78145517 -75.06291699 292.16644334 -76.37060022 262.2300365 C-76.40868452 259.99491621 -76.41858287 257.76165638 -76.41607666 255.5262146 C-76.41904778 254.67972937 -76.4220189 253.83324414 -76.42508006 252.96110785 C-76.43369051 250.14959872 -76.43526876 247.33813255 -76.43676758 244.52661133 C-76.44140118 242.50038565 -76.44642656 240.47416083 -76.45181274 238.44793701 C-76.46488642 232.96003484 -76.47137182 227.47214487 -76.4758234 221.98422956 C-76.47876223 218.54961072 -76.48286854 215.11499515 -76.48732758 211.68037796 C-76.50098915 200.91676264 -76.5106624 190.15315488 -76.51452947 179.38953149 C-76.51900727 166.99689264 -76.53654797 154.60436425 -76.56553006 142.21175897 C-76.5871987 132.61057099 -76.59723651 123.00941397 -76.59857059 113.40820181 C-76.59961488 107.68398063 -76.60544256 101.95986346 -76.6233902 96.23566818 C-76.63996074 90.84623314 -76.64198306 85.45697933 -76.63325119 80.06752777 C-76.63248561 78.10004564 -76.63675957 76.1325534 -76.64670944 74.16509628 C-76.71364445 60.09374492 -76.49104262 45.80470934 -69.65063477 33.09155273 C-69.30436035 32.42841064 -68.95808594 31.76526855 -68.60131836 31.08203125 C-60.41802775 16.0390561 -46.60731543 6.60204587 -30.37879944 1.78868103 C-20.44729156 -0.59720591 -10.1479812 -0.0222337 0 0 Z M187.97827148 251.31811523 C181.66464473 259.2219572 178.62489433 267.44719101 178.54736328 277.49584961 C178.54079208 278.2020192 178.53422089 278.90818878 178.52745056 279.63575745 C178.50779228 281.96477371 178.49607509 284.2937259 178.48608398 286.62280273 C178.48200846 287.41951889 178.47793293 288.21623505 178.4737339 289.03709412 C178.45291048 293.24974302 178.43858964 297.46235966 178.42919922 301.67504883 C178.41810973 306.02650238 178.38367056 310.3774481 178.34402752 314.72872162 C178.31790709 318.07616131 178.30951176 321.42347871 178.30591774 324.77101135 C178.30104416 326.37540641 178.28940818 327.97979572 178.27087975 329.58409119 C178.24657203 331.82722648 178.24743648 334.06902964 178.25439453 336.31225586 C178.24852829 337.58814575 178.24266205 338.86403564 178.23661804 340.17858887 C178.81144906 343.97993659 179.68719104 345.1252326 182.72436523 347.40405273 C186.22740337 348.57173211 189.00161112 348.54542682 192.69921875 348.56518555 C193.40535812 348.57015045 194.1114975 348.57511536 194.83903503 348.58023071 C197.17712379 348.59484238 199.51514454 348.60165512 201.85327148 348.60717773 C203.48412578 348.61293307 205.11498007 348.61869075 206.74583435 348.62445068 C210.16975214 348.63495995 213.59364648 348.64080209 217.01757812 348.64428711 C221.38295071 348.64975053 225.74800801 348.67373236 230.1132822 348.70225906 C233.4858436 348.72098741 236.85833089 348.72609659 240.23093987 348.72762299 C241.83873136 348.73063062 243.44652215 348.73859454 245.05426216 348.75180817 C258.99266897 348.85812161 270.90401375 347.22911164 281.73217773 337.62280273 C289.86289406 329.03451363 292.82025966 318.986541 292.88549805 307.37646484 C292.89046295 306.70087021 292.89542786 306.02527557 292.90054321 305.32920837 C292.91504813 303.11326044 292.92194473 300.89738391 292.92749023 298.68139648 C292.93031761 297.92086031 292.93314499 297.16032413 292.93605804 296.37674141 C292.95099807 292.35744 292.96026211 288.33817406 292.96459961 284.31884766 C292.97009783 280.17390104 292.99416875 276.02928066 293.02257156 271.88443661 C293.04120714 268.68879749 293.04640387 265.49323716 293.04793549 262.29754829 C293.05095701 260.76935593 293.05896866 259.2411648 293.07212067 257.71302605 C293.0892122 255.57584615 293.08729467 253.43946696 293.08081055 251.30224609 C293.08445618 250.0879039 293.08810181 248.87356171 293.09185791 247.62242126 C292.6896044 244.09962989 291.84159712 242.21963088 289.72436523 239.40405273 C286.79314167 237.93844095 283.83366011 238.23950514 280.61938477 238.22705078 C279.52132256 238.21719398 279.52132256 238.21719398 278.40107727 238.20713806 C275.96977637 238.18737642 273.53853765 238.17572961 271.10717773 238.16577148 C270.27448238 238.16169596 269.44178703 238.15762043 268.58385849 238.1534214 C264.16748044 238.13253795 259.75113358 238.11825208 255.3347168 238.10888672 C250.79791254 238.09788118 246.26160679 238.06355664 241.72497749 238.02371502 C238.2176531 237.99739794 234.71044405 237.98918109 231.20302963 237.98560524 C229.53267974 237.98076977 227.86233393 237.96924385 226.19208145 237.95056725 C211.18262929 237.79330995 198.61390659 239.65936534 187.97827148 251.31811523 Z " fill="#C3A9FE" transform="translate(118.275634765625,58.595947265625)"/>
<path d="M0 0 C0 3 0 3 -2.1875 5.48046875 C-3.115625 6.37378906 -4.04375 7.26710938 -5 8.1875 C-5.928125 9.08855469 -6.85625 9.98960938 -7.8125 10.91796875 C-8.534375 11.60503906 -9.25625 12.29210937 -10 13 C-10.66 12.67 -11.32 12.34 -12 12 C-10.75479583 10.55834372 -9.50362077 9.12184348 -8.25 7.6875 C-7.55390625 6.88699219 -6.8578125 6.08648437 -6.140625 5.26171875 C-4.20854665 3.22034399 -2.30056874 1.60107149 0 0 Z " fill="#BB9EFE" transform="translate(66,71)"/>
</svg>
